<svg id="Capa_1" enable-background="new 0 0 512 512" height="512" viewBox="0 0 512 512" width="512" xmlns="http://www.w3.org/2000/svg"><g><g><path d="m494.5 100.91c9.649 0 17.5-7.851 17.5-17.5v-22.256c0-9.649-7.851-17.5-17.5-17.5h-220.106c-4.142 0-7.5 3.358-7.5 7.5s3.358 7.5 7.5 7.5h220.106c1.378 0 2.5 1.122 2.5 2.5v22.256c0 1.378-1.122 2.5-2.5 2.5h-477c-1.378 0-2.5-1.122-2.5-2.5v-22.256c0-1.378 1.122-2.5 2.5-2.5h220.967c4.142 0 7.5-3.358 7.5-7.5s-3.358-7.5-7.5-7.5h-220.967c-9.649 0-17.5 7.851-17.5 17.5v22.256c0 9.649 7.851 17.5 17.5 17.5h3.359v51.364h-3.359c-9.649 0-17.5 7.851-17.5 17.5v12.943c0 9.649 7.851 17.5 17.5 17.5h3.359v111.565h-3.359c-9.649 0-17.5 7.851-17.5 17.5v12.943c0 9.649 7.851 17.5 17.5 17.5h3.359v51.364h-3.359c-9.649 0-17.5 7.851-17.5 17.5v22.256c0 9.649 7.851 17.5 17.5 17.5h477c9.649 0 17.5-7.851 17.5-17.5v-22.255c0-9.649-7.851-17.5-17.5-17.5h-3.359v-51.364h3.359c9.649 0 17.5-7.851 17.5-17.5v-12.943c0-9.649-7.851-17.5-17.5-17.5h-3.359v-111.566h3.359c9.649 0 17.5-7.851 17.5-17.5v-12.943c0-9.649-7.851-17.5-17.5-17.5h-3.359v-51.364zm-87.827 51.364v-51.364h36.525v51.364zm-337.872 0v-51.364h36.526v51.364zm51.526-51.364h17.942v51.364h-17.942zm32.943 0h36.525v51.364h-36.525zm51.525 0h17.942v51.364h-17.942zm32.942 0h36.525v51.364h-36.525zm51.526 0h17.942v51.364h-17.942zm32.942 0h36.525v51.364h-36.525zm51.525 0h17.943v51.364h-17.943zm-337.871 0h17.942v51.364h-17.942zm0 99.307h17.942v111.565h-17.942zm76.968 63.238c4.142 0 7.5-3.358 7.5-7.5v-55.738h17.942v111.565h-17.942v-19.901c0-4.142-3.358-7.5-7.5-7.5s-7.5 3.358-7.5 7.5v19.901h-36.526v-111.565h36.526v55.738c0 4.142 3.358 7.5 7.5 7.5zm124.91 48.328v-111.566h36.525v111.565h-36.525zm-15 0h-17.942v-111.566h17.942zm-32.942 0h-36.525v-111.566h36.525zm-153.936 47.943h17.942v51.364h-17.942zm370.814 51.364v-51.364h36.525v51.364zm-15 0h-17.943v-51.364h17.943zm-32.943 0h-36.525v-51.364h36.525zm-51.525 0h-17.942v-51.364h17.942zm-32.942 0h-36.525v-51.364h36.525zm-51.526 0h-17.942v-51.364h17.942zm-32.942 0h-36.525v-51.364h36.525zm-51.525 0h-17.942v-51.364h17.942zm-32.943 0h-36.526v-51.364h36.526zm391.673 17.5v22.256c0 1.378-1.122 2.5-2.5 2.5h-477c-1.378 0-2.5-1.122-2.5-2.5v-22.256c0-1.378 1.122-2.5 2.5-2.5h477c1.378 0 2.5 1.121 2.5 2.5zm-20.859-17.5h-17.942v-51.364h17.942zm20.859-81.807v12.943c0 1.378-1.122 2.5-2.5 2.5h-477c-1.378 0-2.5-1.122-2.5-2.5v-12.943c0-1.378 1.122-2.5 2.5-2.5h477c1.378 0 2.5 1.121 2.5 2.5zm-53.801-129.066v111.565h-36.525v-111.565zm32.942 111.566h-17.942v-111.566h17.942zm20.859-142.009v12.943c0 1.378-1.122 2.5-2.5 2.5h-149.717c-4.142 0-7.5 3.358-7.5 7.5s3.358 7.5 7.5 7.5h46.89v111.565h-102.41v-111.565h19.594c4.142 0 7.5-3.358 7.5-7.5s-3.358-7.5-7.5-7.5h-291.357c-1.378 0-2.5-1.122-2.5-2.5v-12.943c0-1.378 1.122-2.5 2.5-2.5h477c1.378 0 2.5 1.122 2.5 2.5zm-20.859-17.5h-17.942v-51.364h17.942z"/><path d="m321.323 268.334v11.24c0 11.297 9.19 20.487 20.487 20.487s20.487-9.19 20.487-20.487v-11.236c7.227-6.026 11.433-14.901 11.433-24.479 0-8.699-3.436-16.83-9.676-22.893-6.238-6.062-14.479-9.253-23.174-9.014-16.309.467-29.587 13.063-30.886 29.298-.837 10.461 3.439 20.488 11.329 27.084zm3.623-25.887c.676-8.449 7.864-15.258 16.363-15.501.167-.005.334-.007.501-.007 4.434 0 8.604 1.688 11.79 4.785 3.308 3.214 5.13 7.524 5.13 12.136 0 5.849-2.964 11.206-7.928 14.33-2.181 1.373-3.505 3.77-3.505 6.348v15.038c0 3.026-2.461 5.487-5.487 5.487s-5.487-2.461-5.487-5.487v-15.038c0-2.578-1.324-4.975-3.505-6.347-5.362-3.378-8.379-9.409-7.872-15.744z"/><path d="m370.956 295.134c-.02 4.142 3.323 7.516 7.465 7.535h.104.036c4.125 0 7.479-3.334 7.499-7.465.02-4.142-3.323-7.516-7.465-7.535h-.104c-.012 0-.024 0-.036 0-4.125 0-7.48 3.334-7.499 7.465z"/></g></g></svg>